<svg width="200" height="24" viewBox="0 0 200 24" fill="none" xmlns="http://www.w3.org/2000/svg">
<path d="M8.46 2.69L4.17 2.84L3 9.38H0.48L0.99 0.709999H20.34L20.7 9.38H18.33L17.16 2.84L12.93 2.69V20.9L17.13 21.2V23H4.62V21.2L8.46 20.9V2.69ZM25.2874 2.96L22.7374 2.57V0.709999H32.3374V2.57L29.6974 2.96V20.9L32.3374 21.23V23H22.7374V21.2L25.2874 20.9V2.96ZM37.2314 2.96L34.7714 2.57V0.709999H51.3314L51.6314 6.14H49.2314L48.1214 2.84L41.6414 2.51V11L46.1114 10.91L46.6814 8.27H48.6014V15.89H46.7114L46.1114 13.19L41.6414 13.07V20.9L46.2314 21.2V23H34.9214V21.2L37.2314 20.9V2.96ZM55.8935 2.96L53.4335 2.57V0.709999H69.9935L70.2935 6.14H67.8935L66.7835 2.84L60.3035 2.51V11L64.7735 10.91L65.3435 8.27H67.2635V15.89H65.3735L64.7735 13.19L60.3035 13.07V20.9L64.8935 21.2V23H53.5835V21.2L55.8935 20.9V2.96ZM79.2056 0.589999H83.7956L90.7256 20.9L92.4656 21.2V23H83.6156V21.2L85.8656 20.9L84.6956 17H76.9256L75.7556 20.93L78.1856 21.2V23H70.5356L70.5056 21.2L72.3056 20.9L79.2056 0.589999ZM81.2756 5.66L80.7356 3.32L80.1656 5.69L77.4956 14.9H84.0956L81.2756 5.66ZM95.6501 2.96L93.2801 2.57V0.709999H100.09L109.03 14.21L110.71 17.63V2.96L108.13 2.57V0.709999H115.57V2.57L113.26 2.96V23H109.63L100.3 8.81L98.2001 4.85V20.9L101.23 21.2V23H93.2801V21.2L95.6501 20.9V2.96ZM123.812 14.15L117.392 2.96L115.682 2.57V0.709999H124.502V2.57L122.372 2.96L126.122 10.31L126.962 12.38L127.832 10.31L131.282 2.96L128.942 2.57V0.709999H136.262V2.57L134.402 2.93L128.432 14.12V20.9L131.702 21.2V23H120.632V21.2L123.812 20.9V14.15ZM158.173 12.65L155.953 13.04C155.973 14.3 155.773 15.48 155.353 16.58C154.933 17.66 154.383 18.57 153.703 19.31C154.323 19.87 154.923 20.3 155.503 20.6C156.103 20.88 156.763 21.04 157.483 21.08V22.76C157.283 22.9 156.883 23.01 156.283 23.09C155.703 23.17 155.233 23.21 154.873 23.21C154.093 23.21 153.413 23.11 152.833 22.91C152.253 22.69 151.613 22.32 150.913 21.8C149.573 22.8 147.743 23.3 145.423 23.3C142.843 23.3 140.813 22.78 139.333 21.74C137.853 20.68 137.113 19.21 137.113 17.33C137.113 16.05 137.543 14.95 138.403 14.03C139.263 13.11 140.343 12.4 141.643 11.9C140.843 10.86 140.213 9.88 139.753 8.96C139.313 8.02 139.093 7.01 139.093 5.93C139.093 4.93 139.373 4.01 139.933 3.17C140.513 2.31 141.303 1.64 142.303 1.16C143.303 0.659999 144.403 0.409999 145.603 0.409999C146.863 0.409999 147.923 0.619999 148.783 1.04C149.663 1.44 150.313 1.97 150.733 2.63C151.153 3.29 151.363 3.98 151.363 4.7C151.363 5.78 151.163 6.71 150.763 7.49C150.383 8.25 149.823 8.92 149.083 9.5C148.363 10.08 147.403 10.7 146.203 11.36C147.003 12.32 147.933 13.4 148.993 14.6C150.073 15.8 150.953 16.72 151.633 17.36L152.233 17.93C152.933 16.79 153.283 15.38 153.283 13.7L153.253 13.04L150.943 12.65V10.67H158.173V12.65ZM143.053 5.24C143.053 6.16 143.253 7.01 143.653 7.79C144.073 8.57 144.583 9.33 145.183 10.07C146.163 9.23 146.853 8.4 147.253 7.58C147.653 6.76 147.853 5.82 147.853 4.76C147.853 4.06 147.683 3.42 147.343 2.84C147.003 2.24 146.413 1.94 145.573 1.94C144.833 1.94 144.223 2.24 143.743 2.84C143.283 3.42 143.053 4.22 143.053 5.24ZM145.903 21.35C147.283 21.35 148.383 21.05 149.203 20.45C148.403 19.77 147.553 18.93 146.653 17.93C145.753 16.91 144.703 15.67 143.503 14.21C143.283 13.97 143.043 13.68 142.783 13.34C142.223 13.8 141.763 14.34 141.403 14.96C141.043 15.58 140.863 16.25 140.863 16.97C140.863 18.27 141.303 19.33 142.183 20.15C143.083 20.95 144.323 21.35 145.903 21.35ZM169.925 23.33C166.525 23.33 163.925 22.32 162.125 20.3C160.325 18.26 159.425 15.48 159.425 11.96C159.425 9.64 159.895 7.62 160.835 5.9C161.795 4.16 163.105 2.82 164.765 1.88C166.425 0.939999 168.305 0.469999 170.405 0.469999C171.285 0.469999 172.135 0.529998 172.955 0.649998C173.775 0.749999 174.745 0.89 175.865 1.07C176.705 1.21 177.165 1.28 177.245 1.28L176.915 7.46H174.155L173.225 3.17C173.005 2.95 172.625 2.77 172.085 2.63C171.545 2.49 170.855 2.42 170.015 2.42C168.315 2.42 166.945 3.21 165.905 4.79C164.885 6.35 164.375 8.62 164.375 11.6C164.375 14.48 164.865 16.83 165.845 18.65C166.825 20.47 168.255 21.38 170.135 21.38C171.035 21.38 171.725 21.3 172.205 21.14C172.705 20.96 173.125 20.71 173.465 20.39L174.785 17.3L177.305 17.54L176.705 22.19C176.285 22.23 175.865 22.31 175.445 22.43C175.045 22.53 174.795 22.59 174.695 22.61C173.895 22.83 173.145 23 172.445 23.12C171.765 23.26 170.925 23.33 169.925 23.33ZM188.951 23.33C185.691 23.33 183.251 22.31 181.631 20.27C180.011 18.23 179.201 15.45 179.201 11.93C179.201 9.63 179.621 7.61 180.461 5.87C181.321 4.13 182.521 2.79 184.061 1.85C185.601 0.909999 187.371 0.439999 189.371 0.439999C192.671 0.439999 195.141 1.42 196.781 3.38C198.441 5.32 199.271 8.04 199.271 11.54C199.271 13.86 198.831 15.92 197.951 17.72C197.091 19.5 195.881 20.88 194.321 21.86C192.761 22.84 190.971 23.33 188.951 23.33ZM189.251 2.27C187.611 2.27 186.331 3.08 185.411 4.7C184.491 6.32 184.031 8.72 184.031 11.9C184.031 15.04 184.471 17.43 185.351 19.07C186.251 20.69 187.531 21.5 189.191 21.5C190.811 21.5 192.081 20.65 193.001 18.95C193.921 17.23 194.381 14.76 194.381 11.54C194.381 8.42 193.941 6.1 193.061 4.58C192.181 3.04 190.911 2.27 189.251 2.27Z" fill="#3BC5BB"/>
</svg>
